# xmcd CD database file
#
# Track frame offsets:
#	150
#	25812
#	44940
#	63760
#
# Disc length: 1188 seconds
#
# Revision: 0
# Processed by: cddbd v1.5.1PL2 Copyright (c) Steve Scherf et al.
# Submitted via: CDex 1.51
#
DISCID=3104a204
DTITLE=amagata - With Your Love
DYEAR=1900
DGENRE=J-Pop
TTITLE0=With Your Love(straight run)
TTITLE1=With Your Love(beat emulation edit)
TTITLE2=With Your Love(love so much edit)
TTITLE3=With Your Love(instrumental)
EXTD=
EXTT0=
EXTT1=
EXTT2=
EXTT3=
PLAYORDER=
